<svg width="96" height="96" viewBox="0 0 96 96" fill="none" xmlns="http://www.w3.org/2000/svg">
<defs>
<filter id="filter0_f">
<feFlood flood-opacity="0" result="BackgroundImageFix"/>
<feBlend mode="normal" in="SourceGraphic" in2="BackgroundImageFix" result="shape"/>
<feGaussianBlur stdDeviation="0.4" result="effect1_foregroundBlur"/>
</filter>
<filter id="filter1_f">
<feFlood flood-opacity="0" result="BackgroundImageFix"/>
<feBlend mode="normal" in="SourceGraphic" in2="BackgroundImageFix" result="shape"/>
<feGaussianBlur stdDeviation="4" result="effect1_foregroundBlur"/>
</filter>
<filter id="filter2_f">
<feFlood flood-opacity="0" result="BackgroundImageFix"/>
<feBlend mode="normal" in="SourceGraphic" in2="BackgroundImageFix" result="shape"/>
<feGaussianBlur stdDeviation="0.4" result="effect1_foregroundBlur"/>
</filter>
<filter id="filter3_f">
<feFlood flood-opacity="0" result="BackgroundImageFix"/>
<feBlend mode="normal" in="SourceGraphic" in2="BackgroundImageFix" result="shape"/>
<feGaussianBlur stdDeviation="4" result="effect1_foregroundBlur"/>
</filter>
<linearGradient id="paint0_linear" x1="25.1429" y1="-1.01369e-06" x2="75.1708" y2="96.1968" gradientUnits="userSpaceOnUse">
<stop stop-color="#0576D0"/>
<stop offset="1" stop-color="#2060A6"/>
</linearGradient>
<linearGradient id="paint1_linear" x1="43.1389" y1="13" x2="74.7361" y2="77.1667" gradientUnits="userSpaceOnUse">
<stop stop-color="#2CB6F1"/>
<stop offset="1" stop-color="#0195E6"/>
</linearGradient>
<linearGradient id="paint2_linear" x1="40.6667" y1="26" x2="60.471" y2="65.9969" gradientUnits="userSpaceOnUse">
<stop stop-color="#BFF2FD"/>
<stop offset="1" stop-color="#81D8F8"/>
</linearGradient>
<clipPath id="clip0">
<rect width="96" height="96" fill="white"/>
</clipPath>
</defs>
<g clip-path="url(#clip0)">
<mask id="mask0" mask-type="alpha" maskUnits="userSpaceOnUse" x="0" y="0" width="97" height="93">
<path d="M87.9107 74.6674C82.9321 82.1183 75.9999 87.9809 67.9433 91.661C63.9244 93.4967 59.4964 90.9048 58.3529 86.637L51.1069 59.5947C50.8209 58.5273 51.4687 57.4473 52.4575 56.9541C55.7432 55.3153 58.0001 51.9212 58.0001 48C58.0001 42.4772 53.523 38 48.0001 38C42.4773 38 38.0001 42.4772 38.0001 48C38.0001 51.9212 40.257 55.3153 43.5427 56.9541C44.5316 57.4473 45.1793 58.5273 44.8933 59.5947L37.6473 86.637C36.5038 90.9048 32.0758 93.4967 28.0569 91.661C20.0003 87.9809 13.0681 82.1182 8.08957 74.6674C1.61985 64.9847 -1.10924 53.2803 0.410765 41.7347C1.93077 30.1892 7.5962 19.5899 16.3515 11.9117C25.1068 4.23347 36.3549 -2.2674e-06 48.0001 0C59.6453 2.26741e-06 70.8934 4.23348 79.6487 11.9117C88.404 19.5899 94.0695 30.1892 95.5895 41.7347C97.1095 53.2803 94.3804 64.9847 87.9107 74.6674Z" fill="#C4C4C4"/>
</mask>
<g mask="url(#mask0)">
<path d="M60.4233 94.3644C71.6717 91.3504 81.4408 84.35 87.9105 74.6674C94.3803 64.9847 97.1094 53.2803 95.5894 41.7347C94.0694 30.1892 88.4039 19.5899 79.6486 11.9117C70.8933 4.23348 59.6452 2.2674e-06 48 0C36.3548 -2.2674e-06 25.1067 4.23347 16.3514 11.9117C7.59609 19.5899 1.93065 30.1892 0.410649 41.7347C-1.10936 53.2803 1.61973 64.9847 8.08945 74.6674C14.5592 84.35 24.3283 91.3504 35.5767 94.3644L48 48L60.4233 94.3644Z" fill="url(#paint0_linear)"/>
<g filter="url(#filter0_f)">
<path d="M56.0234 78.3437C56.5952 80.4776 58.8002 81.7653 60.855 80.9539C67.4484 78.3504 73.1282 73.7913 77.1014 67.845C81.8189 60.7847 83.8089 52.2503 82.7006 43.8316C81.5922 35.413 77.4612 27.6843 71.0771 22.0856C64.693 16.4869 56.4913 13.4 48 13.4C39.5087 13.4 31.307 16.4869 24.9229 22.0856C18.5388 27.6843 14.4078 35.413 13.2994 43.8316C12.1911 52.2502 14.1811 60.7847 18.8986 67.845C22.8718 73.7913 28.5515 78.3504 35.145 80.9539C37.1997 81.7652 39.4048 80.4776 39.9766 78.3437L44.1363 62.8195C45.1955 58.8666 50.8045 58.8666 51.8637 62.8195L56.0234 78.3437Z" fill="black" fill-opacity="0.24"/>
</g>
<g filter="url(#filter1_f)">
<path d="M56.0234 79.9437C56.5952 82.0776 58.8002 83.3652 60.855 82.5539C67.4484 79.9503 73.1282 75.3913 77.1014 69.445C81.8189 62.3847 83.8089 53.8502 82.7006 45.4316C81.5922 37.0129 77.4612 29.2843 71.0771 23.6856C64.693 18.0869 56.4913 15 48 15C39.5087 15 31.307 18.0869 24.9229 23.6856C18.5388 29.2843 14.4078 37.0129 13.2994 45.4316C12.1911 53.8502 14.1811 62.3847 18.8986 69.4449C22.8718 75.3913 28.5515 79.9503 35.145 82.5539C37.1997 83.3652 39.4048 82.0776 39.9766 79.9437L44.1363 64.4195C45.1955 60.4666 50.8045 60.4666 51.8637 64.4195L56.0234 79.9437Z" fill="black" fill-opacity="0.32"/>
</g>
<path d="M56.0234 77.9437C56.5952 80.0776 58.8002 81.3652 60.855 80.5539C67.4484 77.9503 73.1282 73.3913 77.1014 67.445C81.8189 60.3847 83.8089 51.8502 82.7006 43.4316C81.5922 35.0129 77.4612 27.2843 71.0771 21.6856C64.693 16.0869 56.4913 13 48 13C39.5087 13 31.307 16.0869 24.9229 21.6856C18.5388 27.2843 14.4078 35.0129 13.2994 43.4316C12.1911 51.8502 14.1811 60.3847 18.8986 67.4449C22.8718 73.3913 28.5515 77.9503 35.145 80.5539C37.1997 81.3652 39.4048 80.0776 39.9766 77.9437L44.1363 62.4195C45.1955 58.4666 50.8045 58.4666 51.8637 62.4195L56.0234 77.9437Z" fill="url(#paint1_linear)"/>
<g filter="url(#filter2_f)">
<path d="M53.1764 67.7185C53.4623 68.7855 54.5632 69.4273 55.5998 69.0457C59.9486 67.445 63.6989 64.504 66.2923 60.6226C69.2576 56.1847 70.5085 50.8202 69.8118 45.5285C69.1151 40.2367 66.5185 35.3787 62.5056 31.8596C58.4928 28.3404 53.3374 26.4 48 26.4C42.6626 26.4 37.5073 28.3404 33.4944 31.8595C29.4815 35.3787 26.8849 40.2367 26.1882 45.5284C25.4915 50.8202 26.7424 56.1847 29.7077 60.6226C32.3011 64.504 36.0514 67.445 40.4002 69.0457C41.4368 69.4273 42.5377 68.7855 42.8236 67.7185L46.0681 55.6098C46.5977 53.6333 49.4023 53.6333 49.9319 55.6098L53.1764 67.7185Z" fill="black" fill-opacity="0.24"/>
</g>
<g filter="url(#filter3_f)">
<path d="M53.1764 69.3185C53.4623 70.3854 54.5632 71.0273 55.5998 70.6457C59.9486 69.045 63.6989 66.1039 66.2923 62.2225C69.2576 57.7847 70.5085 52.4201 69.8118 47.1284C69.1151 41.8367 66.5185 36.9787 62.5056 33.4595C58.4928 29.9403 53.3374 28 48 28C42.6626 28 37.5073 29.9403 33.4944 33.4595C29.4815 36.9787 26.8849 41.8367 26.1882 47.1284C25.4915 52.4201 26.7424 57.7847 29.7077 62.2225C32.3011 66.1039 36.0514 69.045 40.4002 70.6457C41.4368 71.0273 42.5377 70.3854 42.8236 69.3185L46.0681 57.2098C46.5977 55.2333 49.4023 55.2333 49.9319 57.2098L53.1764 69.3185Z" fill="black" fill-opacity="0.32"/>
</g>
<path d="M53.1764 67.3185C53.4623 68.3854 54.5632 69.0273 55.5998 68.6457C59.9486 67.045 63.6989 64.1039 66.2923 60.2225C69.2576 55.7847 70.5085 50.4201 69.8118 45.1284C69.1151 39.8367 66.5185 34.9787 62.5056 31.4595C58.4928 27.9403 53.3374 26 48 26C42.6626 26 37.5073 27.9403 33.4944 31.4595C29.4815 34.9787 26.8849 39.8367 26.1882 45.1284C25.4915 50.4201 26.7424 55.7847 29.7077 60.2225C32.3011 64.1039 36.0514 67.045 40.4002 68.6457C41.4368 69.0273 42.5377 68.3854 42.8236 67.3185L46.0681 55.2098C46.5977 53.2333 49.4023 53.2333 49.9319 55.2098L53.1764 67.3185Z" fill="url(#paint2_linear)"/>
</g>
</g>
</svg>
