<?xml version="1.0" encoding="utf-8"?>
<!-- Generator: Adobe Illustrator 25.0.0, SVG Export Plug-In . SVG Version: 6.00 Build 0)  -->
<svg version="1.1" id="Layer_1" xmlns="http://www.w3.org/2000/svg" xmlns:xlink="http://www.w3.org/1999/xlink" x="0px" y="0px"
	 width="16px" height="16px" viewBox="0 0 16 16" enable-background="new 0 0 16 16" xml:space="preserve">
<path d="M6,10H0V5h6V10z M5,6H1v3h4V6z M4.023,11c0.234,0.312,0.5,0.593,0.797,0.84c0.297,0.248,0.616,0.457,0.957,0.629
	s0.699,0.304,1.074,0.395C7.227,12.955,7.609,13,8,13c0.167,0,0.333-0.009,0.5-0.027c0.167-0.018,0.333-0.043,0.5-0.074v1.016
	c-0.167,0.026-0.333,0.047-0.5,0.062S8.167,14,8,14c-0.536,0-1.058-0.068-1.562-0.207c-0.505-0.138-0.981-0.337-1.43-0.598
	c-0.448-0.26-0.859-0.575-1.234-0.945C3.398,11.881,3.078,11.464,2.812,11H4.023z M3.539,4c0.573-0.641,1.245-1.134,2.016-1.48
	C6.325,2.173,7.141,2,8,2c0.167,0,0.333,0.008,0.5,0.023S8.833,2.06,9,2.086v1.016C8.833,3.07,8.667,3.046,8.5,3.027
	C8.333,3.009,8.167,3,8,3C7.458,3,6.937,3.086,6.434,3.258S5.464,3.677,5.031,4H3.539z M16,1v5h-6V1H16z M10,10h6v5h-6V10z M15,2h-4
	v3h4V2z M11,14h4v-3h-4V14z M12.898,9c0.031-0.167,0.056-0.333,0.074-0.5C12.991,8.333,13,8.167,13,8c0-0.167-0.009-0.333-0.027-0.5
	C12.954,7.333,12.93,7.167,12.898,7h1.016c0.026,0.167,0.047,0.333,0.062,0.5C13.992,7.667,14,7.833,14,8
	c0,0.167-0.008,0.333-0.023,0.5C13.961,8.667,13.94,8.833,13.914,9H12.898z"/>
</svg>
