<?xml version="1.0" encoding="utf-8"?>
<!-- Generator: Adobe Illustrator 25.0.0, SVG Export Plug-In . SVG Version: 6.00 Build 0)  -->
<svg version="1.1" id="Layer_1" xmlns="http://www.w3.org/2000/svg" xmlns:xlink="http://www.w3.org/1999/xlink" x="0px" y="0px"
	 width="16px" height="16px" viewBox="0 0 16 16" enable-background="new 0 0 16 16" xml:space="preserve">
<path d="M16,14v1H0v-1H16z M11,3.289L6.023,8.273l0.703,0.703L7,8.711V13h3v-3h2v3h3V8.711l0.273,0.266l0.703-0.703L11,3.289z
	 M14,12h-1V9H9v3H8V7.711l3-3l3,3V12z M4,8.5C4,7.672,3.328,7,2.5,7S1,7.672,1,8.5c0,0.652,0.419,1.202,1,1.408V13h1V9.908
	C3.581,9.702,4,9.152,4,8.5z M2.5,9C2.224,9,2,8.776,2,8.5S2.224,8,2.5,8S3,8.224,3,8.5S2.776,9,2.5,9z M7.126,3.941l0.714-0.704
	C6.48,1.857,4.591,1,2.5,1C1.623,1,0.784,1.158,0.002,1.435l0.333,0.943C1.014,2.138,1.74,2,2.5,2C4.309,2,5.947,2.745,7.126,3.941z
	 M5.702,5.345l0.715-0.704C5.419,3.629,4.033,3,2.5,3C1.857,3,1.242,3.116,0.668,3.319l0.338,0.955C1.476,4.108,1.974,4,2.5,4
	C3.753,4,4.885,4.516,5.702,5.345z M4.279,6.747l0.713-0.702C4.357,5.401,3.476,5,2.5,5C2.09,5,1.703,5.084,1.338,5.213l0.332,0.94
	C1.931,6.06,2.208,6,2.5,6C3.196,6,3.825,6.287,4.279,6.747z"/>
</svg>
