<?xml version="1.0" encoding="utf-8"?>
<!-- Generator: Adobe Illustrator 25.0.0, SVG Export Plug-In . SVG Version: 6.00 Build 0)  -->
<svg version="1.1" id="Layer_1" xmlns="http://www.w3.org/2000/svg" xmlns:xlink="http://www.w3.org/1999/xlink" x="0px" y="0px"
	 width="16px" height="16px" viewBox="0 0 16 16" enable-background="new 0 0 16 16" xml:space="preserve">
<path d="M16,4v8h-1v2H9v-1.5c0-0.135-0.05-0.252-0.148-0.352C8.753,12.05,8.636,12,8.5,12s-0.253,0.05-0.352,0.148
	C8.05,12.248,8,12.365,8,12.5V14H4v-2H2v3H1V2H0V1h2v3H16z M15,5H2v1h1v1H2v2h1v1H2v1h7v-1h1v1h1v-1h1v1h1v-1h1v1h0.5H15V5z
	 M8.055,10h-4V6h4V10z M7,13c0-0.172,0-0.34,0-0.504S7.028,12.167,7.086,12H5v1H7z M7.055,7h-2v2h2V7z M10,7H9V6h1V7z M12,9H9V8h3V9
	z M14,13v-1H9.914C9.972,12.167,10,12.332,10,12.496s0,0.332,0,0.504H14z M12,7h-1V6h1V7z M14,7h-1V6h1V7z M14,9h-1V8h1V9z"/>
</svg>
