<?xml version="1.0" encoding="utf-8"?>
<!-- Generator: Adobe Illustrator 25.0.0, SVG Export Plug-In . SVG Version: 6.00 Build 0)  -->
<svg version="1.1" id="Layer_1" xmlns="http://www.w3.org/2000/svg" xmlns:xlink="http://www.w3.org/1999/xlink" x="0px" y="0px"
	 width="16px" height="16px" viewBox="0 0 16 16" enable-background="new 0 0 16 16" xml:space="preserve">
<path d="M12,3c0.411,0,0.8,0.078,1.164,0.234s0.684,0.371,0.957,0.645s0.488,0.593,0.645,0.957C14.922,5.201,15,5.589,15,6v8H0V6
	c0-0.411,0.078-0.799,0.234-1.164c0.156-0.364,0.371-0.684,0.645-0.957S1.47,3.391,1.832,3.234C2.194,3.078,2.583,3,3,3h3V2H3V0h4v3
	H12z M9,6c0-0.37,0.065-0.727,0.195-1.07S9.516,4.276,9.766,4H7v4H6V4H3C2.724,4,2.465,4.052,2.223,4.156
	C1.98,4.261,1.768,4.404,1.586,4.586C1.403,4.769,1.26,4.98,1.156,5.223C1.052,5.465,1,5.724,1,6v7h8V6z M14,6
	c0-0.276-0.052-0.535-0.156-0.777s-0.247-0.454-0.43-0.637c-0.183-0.182-0.395-0.325-0.637-0.43C12.535,4.052,12.276,4,12,4
	s-0.535,0.052-0.777,0.156c-0.242,0.104-0.454,0.248-0.637,0.43c-0.183,0.183-0.325,0.395-0.43,0.637S10,5.724,10,6v7h4V6z M11,6h2
	v1h-2V6z"/>
</svg>
