<?xml version="1.0" encoding="utf-8"?>
<!-- Generator: Adobe Illustrator 25.0.0, SVG Export Plug-In . SVG Version: 6.00 Build 0)  -->
<svg version="1.1" id="Layer_1" xmlns="http://www.w3.org/2000/svg" xmlns:xlink="http://www.w3.org/1999/xlink" x="0px" y="0px"
	 width="16px" height="16px" viewBox="0 0 16 16" enable-background="new 0 0 16 16" xml:space="preserve">
<path d="M6,10H0V1c0-0.141,0.026-0.271,0.078-0.391s0.124-0.226,0.215-0.316S0.489,0.13,0.609,0.078S0.859,0,1,0h4
	c0.141,0,0.271,0.026,0.391,0.078c0.12,0.052,0.226,0.124,0.316,0.215c0.09,0.091,0.163,0.196,0.215,0.316S6,0.859,6,1v2h4V1
	c0-0.141,0.026-0.271,0.078-0.391s0.124-0.226,0.215-0.316c0.091-0.09,0.196-0.163,0.316-0.215S10.859,0,11,0h4
	c0.141,0,0.271,0.026,0.391,0.078s0.226,0.124,0.316,0.215s0.163,0.196,0.215,0.316S16,0.859,16,1v6h-1V1h-4v6h-1V4H6V10z M5,9V1H1
	v8H5z M4,3H2V2h2V3z M4,6H2V5h2V6z M2,7h2v1H2V7z M9,6H7V5h2V6z M14,3h-2V2h2V3z M16,8H7v6h4v1h-1v1h3v-1h-1v-1h4V8z M8,13V9h7v4H8z
	"/>
</svg>
