<?xml version="1.0" encoding="utf-8"?>
<!-- Generator: Adobe Illustrator 25.0.0, SVG Export Plug-In . SVG Version: 6.00 Build 0)  -->
<svg version="1.1" id="Layer_1" xmlns="http://www.w3.org/2000/svg" xmlns:xlink="http://www.w3.org/1999/xlink" x="0px" y="0px"
	 width="16px" height="16px" viewBox="0 0 16 16" enable-background="new 0 0 16 16" xml:space="preserve">
<path d="M15,16H0l3-9h4V4.953c-0.292-0.062-0.56-0.169-0.805-0.32C5.95,4.482,5.739,4.298,5.562,4.082
	c-0.177-0.216-0.315-0.459-0.414-0.73C5.05,3.081,5,2.797,5,2.5c0-0.344,0.065-0.667,0.195-0.969
	c0.13-0.302,0.309-0.566,0.535-0.793s0.492-0.406,0.797-0.539S7.156,0,7.5,0s0.667,0.066,0.969,0.199s0.566,0.312,0.793,0.539
	s0.406,0.491,0.539,0.793C9.934,1.833,10,2.156,10,2.5c0,0.297-0.05,0.581-0.148,0.852c-0.099,0.271-0.237,0.515-0.414,0.73
	c-0.177,0.216-0.388,0.4-0.633,0.551C8.56,4.784,8.292,4.891,8,4.953V7h4L15,16z M1.391,15h12.219l-2.328-7H8v3.75
	c0,0.047-0.02,0.088-0.059,0.121c-0.039,0.034-0.086,0.061-0.141,0.078c-0.055,0.019-0.109,0.031-0.164,0.039S7.536,12,7.5,12
	s-0.082-0.004-0.137-0.012s-0.109-0.021-0.164-0.039c-0.055-0.018-0.102-0.044-0.141-0.078C7.02,11.838,7,11.797,7,11.75V8H3.719
	L1.391,15z M6,2.5c0,0.208,0.039,0.404,0.117,0.586c0.078,0.183,0.185,0.341,0.32,0.477c0.136,0.136,0.294,0.242,0.477,0.32
	S7.292,4,7.5,4s0.403-0.039,0.586-0.117s0.341-0.185,0.477-0.32c0.136-0.135,0.242-0.294,0.32-0.477C8.961,2.904,9,2.708,9,2.5
	c0-0.208-0.039-0.403-0.117-0.586c-0.078-0.182-0.185-0.341-0.32-0.477c-0.136-0.135-0.294-0.242-0.477-0.32S7.708,1,7.5,1
	S7.097,1.039,6.914,1.117s-0.341,0.185-0.477,0.32c-0.136,0.136-0.242,0.294-0.32,0.477C6.039,2.097,6,2.292,6,2.5z"/>
</svg>
