<?xml version="1.0" encoding="utf-8"?>
<!-- Generator: Adobe Illustrator 25.0.0, SVG Export Plug-In . SVG Version: 6.00 Build 0)  -->
<svg version="1.1" id="Layer_1" xmlns="http://www.w3.org/2000/svg" xmlns:xlink="http://www.w3.org/1999/xlink" x="0px" y="0px"
	 width="16px" height="16px" viewBox="0 0 16 16" enable-background="new 0 0 16 16" xml:space="preserve">
<g>
	<path d="M12,1v14H8v-4H7v4H3V1H12z M11,2H4v12h2v-4h3v4h2V2z M6,5H5V3h1V5z M6,8H5V6h1V8z M8,5H7V3h1V5z M8,8H7V6h1V8z M10,5H9V3h1
		V5z M10,8H9V6h1V8z"/>
</g>
</svg>
