<?xml version="1.0" encoding="utf-8"?>
<!-- Generator: Adobe Illustrator 25.0.0, SVG Export Plug-In . SVG Version: 6.00 Build 0)  -->
<svg version="1.1" id="Layer_1" xmlns="http://www.w3.org/2000/svg" xmlns:xlink="http://www.w3.org/1999/xlink" x="0px" y="0px"
	 width="16px" height="16px" viewBox="0 0 16 16" enable-background="new 0 0 16 16" xml:space="preserve">
<path d="M10,8V7L6,4L2,7v1H0v7h16V8H10z M2,14H1V9h1V14z M5,14v-3h2v3H5z M9,14H8v-4H4v4H3V7.5l3-2.25L9,7.5V14z M15,14h-5V9h5V14z
	 M12.5,6.711l-2.476-2.484l0.703-0.703L12,4.797V0h1v4.797l1.274-1.273l0.703,0.703L12.5,6.711z"/>
</svg>
