<?xml version="1.0" encoding="utf-8"?>
<!-- Generator: Adobe Illustrator 25.0.0, SVG Export Plug-In . SVG Version: 6.00 Build 0)  -->
<svg version="1.1" id="Layer_1" xmlns="http://www.w3.org/2000/svg" xmlns:xlink="http://www.w3.org/1999/xlink" x="0px" y="0px"
	 width="16px" height="16px" viewBox="0 0 16 16" enable-background="new 0 0 16 16" xml:space="preserve">
<path d="M14,11.562c0.219,0.058,0.419,0.148,0.602,0.273s0.34,0.273,0.473,0.445s0.237,0.362,0.312,0.57
	c0.075,0.209,0.113,0.425,0.113,0.648c0,0.276-0.052,0.535-0.156,0.777s-0.247,0.455-0.43,0.637
	c-0.183,0.183-0.395,0.325-0.637,0.43S13.776,15.5,13.5,15.5c-0.229,0-0.446-0.036-0.652-0.109s-0.395-0.176-0.566-0.309
	s-0.32-0.291-0.445-0.477c-0.125-0.185-0.216-0.387-0.273-0.605H10v-1h1.562c0.089-0.354,0.262-0.66,0.52-0.918
	s0.563-0.431,0.918-0.52V4.438c-0.354-0.088-0.66-0.262-0.918-0.52S11.651,3.354,11.562,3H4.438c-0.089,0.354-0.262,0.66-0.52,0.918
	S3.354,4.349,3,4.438v7.125c0.354,0.089,0.66,0.262,0.918,0.52S4.349,12.646,4.438,13H6v1H4.438
	c-0.058,0.219-0.148,0.421-0.273,0.605c-0.125,0.186-0.273,0.344-0.445,0.477s-0.362,0.235-0.57,0.309
	C2.94,15.464,2.724,15.5,2.5,15.5c-0.276,0-0.535-0.052-0.777-0.156s-0.455-0.247-0.637-0.43c-0.183-0.182-0.326-0.395-0.43-0.637
	C0.552,14.035,0.5,13.776,0.5,13.5c0-0.224,0.036-0.439,0.109-0.648c0.073-0.208,0.176-0.398,0.309-0.57s0.292-0.32,0.477-0.445
	C1.579,11.711,1.781,11.62,2,11.562V4.438C1.781,4.38,1.579,4.289,1.395,4.164C1.209,4.039,1.051,3.891,0.918,3.719
	s-0.236-0.36-0.309-0.566C0.536,2.947,0.5,2.729,0.5,2.5c0-0.276,0.052-0.535,0.156-0.777C0.76,1.48,0.903,1.269,1.086,1.086
	c0.182-0.182,0.395-0.325,0.637-0.43C1.965,0.552,2.224,0.5,2.5,0.5c0.224,0,0.44,0.038,0.648,0.113
	c0.208,0.076,0.398,0.18,0.57,0.312s0.32,0.291,0.445,0.473C4.289,1.581,4.38,1.781,4.438,2h7.125
	c0.058-0.219,0.148-0.419,0.273-0.602c0.125-0.182,0.273-0.34,0.445-0.473s0.36-0.237,0.566-0.312C13.054,0.538,13.271,0.5,13.5,0.5
	c0.276,0,0.535,0.052,0.777,0.156c0.242,0.104,0.454,0.248,0.637,0.43c0.183,0.183,0.325,0.395,0.43,0.637S15.5,2.224,15.5,2.5
	c0,0.229-0.038,0.447-0.113,0.652c-0.075,0.206-0.18,0.395-0.312,0.566s-0.29,0.32-0.473,0.445S14.219,4.38,14,4.438V11.562z
	 M2.5,3.5c0.141,0,0.271-0.026,0.391-0.078C3.01,3.37,3.116,3.298,3.207,3.207C3.298,3.116,3.37,3.011,3.422,2.891
	C3.474,2.771,3.5,2.641,3.5,2.5S3.474,2.229,3.422,2.109C3.37,1.99,3.298,1.884,3.207,1.793C3.116,1.702,3.01,1.63,2.891,1.578
	C2.771,1.526,2.641,1.5,2.5,1.5S2.229,1.526,2.109,1.578C1.989,1.63,1.884,1.702,1.793,1.793C1.702,1.884,1.63,1.99,1.578,2.109
	C1.526,2.229,1.5,2.359,1.5,2.5s0.026,0.271,0.078,0.391c0.052,0.12,0.124,0.226,0.215,0.316C1.884,3.298,1.989,3.37,2.109,3.422
	C2.229,3.474,2.359,3.5,2.5,3.5z M3.5,13.5c0-0.141-0.026-0.271-0.078-0.391c-0.052-0.119-0.124-0.225-0.215-0.316
	c-0.091-0.091-0.197-0.162-0.316-0.215C2.771,12.526,2.641,12.5,2.5,12.5s-0.271,0.026-0.391,0.078
	c-0.12,0.053-0.226,0.124-0.316,0.215c-0.091,0.092-0.163,0.197-0.215,0.316C1.526,13.229,1.5,13.359,1.5,13.5
	s0.026,0.271,0.078,0.391c0.052,0.12,0.124,0.226,0.215,0.316c0.091,0.092,0.196,0.163,0.316,0.215
	C2.229,14.475,2.359,14.5,2.5,14.5s0.271-0.025,0.391-0.078c0.12-0.052,0.225-0.123,0.316-0.215
	c0.091-0.091,0.163-0.196,0.215-0.316C3.474,13.771,3.5,13.641,3.5,13.5z M7,13h2v1H7V13z M12.5,2.5
	c0,0.141,0.026,0.271,0.078,0.391c0.052,0.12,0.124,0.226,0.215,0.316c0.091,0.091,0.196,0.163,0.316,0.215
	C13.229,3.474,13.359,3.5,13.5,3.5s0.271-0.026,0.391-0.078c0.12-0.052,0.226-0.124,0.316-0.215
	c0.091-0.091,0.163-0.196,0.215-0.316C14.474,2.771,14.5,2.641,14.5,2.5s-0.026-0.271-0.078-0.391
	c-0.052-0.12-0.124-0.225-0.215-0.316c-0.091-0.091-0.196-0.163-0.316-0.215C13.771,1.526,13.641,1.5,13.5,1.5
	s-0.271,0.026-0.391,0.078c-0.12,0.052-0.226,0.124-0.316,0.215c-0.091,0.091-0.163,0.197-0.215,0.316
	C12.526,2.229,12.5,2.359,12.5,2.5z M13.5,14.5c0.141,0,0.271-0.025,0.391-0.078c0.12-0.052,0.226-0.123,0.316-0.215
	c0.091-0.091,0.163-0.196,0.215-0.316c0.052-0.119,0.078-0.25,0.078-0.391s-0.026-0.271-0.078-0.391
	c-0.052-0.119-0.124-0.225-0.215-0.316c-0.091-0.091-0.196-0.162-0.316-0.215c-0.12-0.052-0.25-0.078-0.391-0.078
	s-0.271,0.026-0.391,0.078c-0.12,0.053-0.226,0.124-0.316,0.215c-0.091,0.092-0.163,0.197-0.215,0.316
	c-0.052,0.12-0.078,0.25-0.078,0.391s0.026,0.271,0.078,0.391c0.052,0.12,0.124,0.226,0.215,0.316
	c0.091,0.092,0.196,0.163,0.316,0.215C13.229,14.475,13.359,14.5,13.5,14.5z"/>
</svg>
