<?xml version="1.0" encoding="utf-8"?>
<!-- Generator: Adobe Illustrator 25.0.0, SVG Export Plug-In . SVG Version: 6.00 Build 0)  -->
<svg version="1.1" id="Layer_1" xmlns="http://www.w3.org/2000/svg" xmlns:xlink="http://www.w3.org/1999/xlink" x="0px" y="0px"
	 width="16px" height="16px" viewBox="0 0 16 16" enable-background="new 0 0 16 16" xml:space="preserve">
<path d="M0,8h3v5H0V8z M4,3h3v10H4V3z M11,5H8V0h3V5z M14,6c0.141,0,0.271,0.026,0.391,0.078c0.12,0.052,0.226,0.124,0.316,0.215
	c0.091,0.091,0.163,0.197,0.215,0.316C14.974,6.729,15,6.859,15,7v8c0,0.141-0.026,0.271-0.078,0.391s-0.124,0.226-0.215,0.316
	s-0.196,0.163-0.316,0.215S14.141,16,14,16H9c-0.141,0-0.271-0.026-0.391-0.078s-0.226-0.124-0.316-0.215s-0.163-0.196-0.215-0.316
	S8,15.141,8,15V7c0-0.141,0.026-0.271,0.078-0.391C8.13,6.49,8.202,6.384,8.293,6.293C8.384,6.202,8.489,6.13,8.609,6.078
	C8.729,6.026,8.859,6,9,6H14z M14,7H9v8h5V7z M10,13h3v1h-3V13z M15,3v2h-3V3H15z"/>
</svg>
