<?xml version="1.0" encoding="utf-8"?>
<!-- Generator: Adobe Illustrator 25.0.0, SVG Export Plug-In . SVG Version: 6.00 Build 0)  -->
<svg version="1.1" id="Layer_1" xmlns="http://www.w3.org/2000/svg" xmlns:xlink="http://www.w3.org/1999/xlink" x="0px" y="0px"
	 width="16px" height="16px" viewBox="0 0 16 16" enable-background="new 0 0 16 16" xml:space="preserve">
<path d="M3.633,8.359c-0.261-0.25-0.494-0.523-0.699-0.82C2.728,7.242,2.555,6.93,2.414,6.602s-0.248-0.669-0.32-1.023
	C2.021,5.224,1.984,4.865,1.984,4.5c0-0.364,0.036-0.724,0.109-1.078c0.073-0.354,0.18-0.695,0.32-1.023s0.313-0.641,0.52-0.938
	c0.206-0.297,0.438-0.57,0.699-0.82l0.695,0.719C3.896,1.776,3.563,2.254,3.332,2.793C3.1,3.332,2.984,3.901,2.984,4.5
	c0,0.599,0.116,1.168,0.348,1.707c0.231,0.539,0.563,1.017,0.996,1.434L3.633,8.359z M9,4.5c0,0.234-0.051,0.455-0.152,0.66
	C8.746,5.366,8.604,5.539,8.422,5.68L11.523,15h-1.047l-0.672-2H5.195l-0.672,2H3.477l3.102-9.32
	C6.396,5.539,6.254,5.366,6.152,5.16C6.051,4.955,6,4.734,6,4.5c0-0.208,0.039-0.403,0.117-0.586
	c0.078-0.182,0.185-0.341,0.32-0.477c0.136-0.135,0.294-0.242,0.477-0.32S7.292,3,7.5,3s0.403,0.039,0.586,0.117
	s0.341,0.185,0.477,0.32c0.136,0.136,0.242,0.294,0.32,0.477C8.961,4.097,9,4.292,9,4.5z M5.023,6.922
	C4.69,6.599,4.434,6.23,4.254,5.816S3.984,4.964,3.984,4.5c0-0.463,0.09-0.902,0.27-1.316s0.437-0.782,0.77-1.105l0.695,0.719
	C5.484,3.021,5.304,3.279,5.176,3.57C5.048,3.862,4.984,4.172,4.984,4.5s0.063,0.638,0.191,0.93c0.128,0.292,0.309,0.55,0.543,0.773
	L5.023,6.922z M9.477,12l-0.672-2H6.195l-0.672,2H9.477z M7.5,6.078L6.523,9h1.953L7.5,6.078z M7.5,4
	C7.364,4,7.247,4.05,7.148,4.148C7.05,4.248,7,4.365,7,4.5c0,0.136,0.05,0.253,0.148,0.352C7.247,4.951,7.364,5,7.5,5
	s0.253-0.049,0.352-0.148C7.95,4.753,8,4.636,8,4.5c0-0.135-0.05-0.252-0.148-0.352C7.753,4.05,7.636,4,7.5,4z M9.281,6.203
	C9.516,5.979,9.696,5.722,9.824,5.43c0.128-0.292,0.191-0.602,0.191-0.93S9.952,3.862,9.824,3.57
	C9.696,3.279,9.516,3.021,9.281,2.797l0.695-0.719c0.333,0.323,0.59,0.691,0.77,1.105s0.27,0.853,0.27,1.316
	c0,0.464-0.09,0.902-0.27,1.316s-0.437,0.783-0.77,1.105L9.281,6.203z M11.367,0.641c0.261,0.25,0.493,0.523,0.699,0.82
	s0.379,0.609,0.52,0.938s0.247,0.669,0.32,1.023c0.073,0.354,0.109,0.714,0.109,1.078c0,0.365-0.036,0.724-0.109,1.078
	c-0.073,0.354-0.18,0.695-0.32,1.023s-0.313,0.641-0.52,0.938s-0.438,0.57-0.699,0.82l-0.695-0.719
	c0.433-0.417,0.765-0.895,0.996-1.434s0.348-1.108,0.348-1.707c0-0.599-0.116-1.168-0.348-1.707s-0.563-1.017-0.996-1.434
	L11.367,0.641z"/>
</svg>
