<?xml version="1.0" encoding="utf-8"?>
<!-- Generator: Adobe Illustrator 25.0.0, SVG Export Plug-In . SVG Version: 6.00 Build 0)  -->
<svg version="1.1" id="Layer_1" xmlns="http://www.w3.org/2000/svg" xmlns:xlink="http://www.w3.org/1999/xlink" x="0px" y="0px"
	 width="16px" height="16px" viewBox="0 0 16 16" enable-background="new 0 0 16 16" xml:space="preserve">
<path d="M10,0.289l5,5V16h-1V5.711l-3-3V6h1v10H9v-3H8v3H5V6h3V5H2v11H1V4h8v2h1V0.289z M3,7V6h1v1H3z M3,9V8h1v1H3z M3,11v-1h1v1H3
	z M3,13v-1h1v1H3z M3,15v-1h1v1H3z M11,15V7H6v8h1v-3h3v3H11z M8,8v1H7V8H8z M8,10v1H7v-1H8z M10,8v1H9V8H10z M10,10v1H9v-1H10z"/>
</svg>
