<?xml version="1.0" encoding="utf-8"?>
<!-- Generator: Adobe Illustrator 25.0.0, SVG Export Plug-In . SVG Version: 6.00 Build 0)  -->
<svg version="1.1" id="Layer_1" xmlns="http://www.w3.org/2000/svg" xmlns:xlink="http://www.w3.org/1999/xlink" x="0px" y="0px"
	 width="16px" height="16px" viewBox="0 0 16 16" enable-background="new 0 0 16 16" xml:space="preserve">
<path d="M0,16V5h7v11H0z M1,6v9h2v-2h1v2h2V6H1z M3,7v1H2V7H3z M3,9v1H2V9H3z M3,11v1H2v-1H3z M5,7v1H4V7H5z M5,9v1H4V9H5z M5,11v1
	H4v-1H5z M8,1h7v15H8V1z M14,15V2H9v13h2v-2h1v2H14z M11,3v1h-1V3H11z M11,5v1h-1V5H11z M11,7v1h-1V7H11z M11,9v1h-1V9H11z M11,11v1
	h-1v-1H11z M13,3v1h-1V3H13z M13,5v1h-1V5H13z M13,7v1h-1V7H13z M13,9v1h-1V9H13z M13,11v1h-1v-1H13z"/>
</svg>
