<?xml version="1.0" encoding="utf-8"?>
<!-- Generator: Adobe Illustrator 25.0.0, SVG Export Plug-In . SVG Version: 6.00 Build 0)  -->
<svg version="1.1" id="Layer_1" xmlns="http://www.w3.org/2000/svg" xmlns:xlink="http://www.w3.org/1999/xlink" x="0px" y="0px"
	 width="16px" height="16px" viewBox="0 0 16 16" enable-background="new 0 0 16 16" xml:space="preserve">
<path d="M11.281,10.203l0.695,0.719c0.333-0.323,0.59-0.691,0.77-1.105c0.18-0.414,0.27-0.853,0.27-1.316s-0.09-0.902-0.27-1.316
	c-0.18-0.414-0.437-0.782-0.77-1.105l-0.695,0.719c0.234,0.224,0.415,0.481,0.543,0.773c0.128,0.292,0.191,0.602,0.191,0.93
	s-0.063,0.638-0.191,0.93C11.696,9.724,11.516,9.979,11.281,10.203z"/>
<path d="M14.016,8.5c0,0.599-0.116,1.168-0.348,1.707c-0.232,0.539-0.563,1.017-0.996,1.434l0.695,0.719
	c0.261-0.25,0.493-0.523,0.699-0.82s0.379-0.609,0.52-0.938c0.141-0.329,0.247-0.669,0.32-1.023
	c0.073-0.354,0.109-0.714,0.109-1.078c0-0.364-0.036-0.724-0.109-1.078s-0.18-0.695-0.32-1.023c-0.14-0.328-0.313-0.641-0.52-0.938
	s-0.438-0.57-0.699-0.82l-0.695,0.719c0.433,0.417,0.765,0.895,0.996,1.434S14.016,7.901,14.016,8.5z"/>
<path d="M8.578,9.68L6.808,15H7.86l0.336-1h2.609l0.336,1h1.052l-1.77-5.32c0.183-0.141,0.324-0.313,0.426-0.52S11,8.734,11,8.5
	c0-0.208-0.039-0.403-0.117-0.586s-0.185-0.341-0.32-0.477c-0.135-0.136-0.294-0.242-0.477-0.32C9.903,7.039,9.708,7,9.5,7
	C9.292,7,9.097,7.039,8.914,7.117s-0.341,0.185-0.477,0.32c-0.136,0.135-0.242,0.294-0.32,0.477S8,8.292,8,8.5
	c0,0.234,0.051,0.454,0.152,0.66C8.253,9.366,8.396,9.539,8.578,9.68z M9.148,8.148C9.247,8.05,9.364,8,9.5,8
	c0.136,0,0.253,0.05,0.352,0.148C9.951,8.246,10,8.364,10,8.5S9.95,8.753,9.852,8.852C9.754,8.951,9.636,9,9.5,9
	C9.364,9,9.247,8.95,9.148,8.852C9.049,8.754,9,8.636,9,8.5S9.05,8.247,9.148,8.148z M9.5,10.078L10.477,13H8.523L9.5,10.078z"/>
<path d="M7.028,8.773C6.97,8.799,6.919,8.836,6.859,8.859c0.06-0.126,0.095-0.269,0.145-0.402c0.007-0.43,0.129-0.828,0.327-1.178
	C7.349,7.187,7.375,7.092,7.391,7h0.121C7.968,6.396,8.685,6,9.5,6c0.153,0,0.301,0.019,0.446,0.045C9.968,5.865,10,5.687,10,5.5
	c0-0.62-0.118-1.203-0.355-1.75C9.408,3.203,9.086,2.727,8.68,2.32S7.797,1.593,7.25,1.355S6.12,1,5.5,1S4.297,1.118,3.75,1.355
	S2.727,1.914,2.32,2.32S1.593,3.203,1.355,3.75S1,4.88,1,5.5s0.118,1.203,0.355,1.75S1.914,8.273,2.32,8.68
	c0.406,0.407,0.883,0.728,1.43,0.965C4.297,9.882,4.88,10,5.5,10s1.203-0.118,1.75-0.355C7.261,9.64,7.27,9.633,7.28,9.628
	C7.147,9.366,7.061,9.079,7.028,8.773z M9.117,5.25C9.122,5.333,9.125,5.417,9.125,5.5S9.122,5.667,9.117,5.75
	C9.112,5.833,9.102,5.917,9.086,6H7.484c0.005-0.083,0.008-0.167,0.008-0.25s0-0.167,0-0.25V5h1.594
	C9.102,5.083,9.112,5.167,9.117,5.25z M4.641,3.246c0.067-0.269,0.156-0.509,0.266-0.723c0.02-0.042,0.053-0.098,0.097-0.171
	c0.044-0.073,0.094-0.145,0.148-0.215c0.054-0.07,0.112-0.132,0.172-0.184C5.384,1.901,5.442,1.875,5.5,1.875
	c0.047,0,0.101,0.028,0.16,0.086c0.059,0.058,0.118,0.125,0.176,0.203s0.108,0.155,0.152,0.23s0.074,0.129,0.09,0.16
	c0.114,0.224,0.204,0.458,0.27,0.703S6.466,3.75,6.508,4H4.477C4.519,3.766,4.573,3.515,4.641,3.246z M1.883,5.75
	C1.878,5.667,1.875,5.583,1.875,5.5s0.003-0.167,0.008-0.25S1.898,5.083,1.914,5h1.594v1H1.914C1.898,5.917,1.888,5.833,1.883,5.75z
	 M2.977,8.102C2.648,7.784,2.391,7.417,2.203,7h1.391c0.042,0.312,0.103,0.626,0.184,0.941c0.081,0.315,0.188,0.616,0.324,0.902
	C3.68,8.667,3.305,8.419,2.977,8.102z M3.785,3.055C3.704,3.372,3.641,3.688,3.594,4H2.203c0.188-0.422,0.448-0.792,0.781-1.109
	s0.711-0.565,1.133-0.742C3.977,2.435,3.866,2.737,3.785,3.055z M6.398,7.496C6.356,7.681,6.305,7.867,6.242,8.055
	C6.179,8.243,6.106,8.418,6.023,8.582C5.94,8.746,5.847,8.88,5.742,8.984C5.706,9.016,5.669,9.047,5.633,9.078
	C5.597,9.109,5.552,9.125,5.5,9.125c-0.058,0-0.116-0.024-0.176-0.074c-0.06-0.05-0.117-0.109-0.172-0.176S5.048,8.737,5.004,8.664
	C4.96,8.591,4.927,8.534,4.906,8.492c-0.12-0.234-0.212-0.478-0.277-0.73C4.564,7.51,4.513,7.255,4.477,7H6.5
	C6.474,7.146,6.44,7.312,6.398,7.496z M6.621,5.75C6.618,5.833,6.614,5.917,6.609,6H4.383c0-0.083-0.001-0.167-0.004-0.25
	C4.376,5.667,4.375,5.583,4.375,5.5s0.001-0.167,0.004-0.25C4.382,5.167,4.383,5.083,4.383,5H6.61
	c0.005,0.083,0.009,0.167,0.012,0.25C6.625,5.333,6.625,5.417,6.625,5.5S6.624,5.667,6.621,5.75z M8,2.883
	C8.339,3.206,8.604,3.578,8.797,4H7.398C7.352,3.677,7.285,3.359,7.199,3.047S6.997,2.43,6.852,2.133C7.278,2.31,7.661,2.56,8,2.883
	z"/>
</svg>
